<?xml version="1.0" encoding="utf-8"?>
<svg width="23.46582px" height="23.964844px" viewBox="0 0 23.46582 23.964844" version="1.1" xmlns:xlink="http://www.w3.org/1999/xlink" xmlns="http://www.w3.org/2000/svg">
  <defs>
    <path d="M0.00292969 0.00149601L23.4656 0.00149601L23.4656 23.9633L0.00292969 23.9633L0.00292969 0.00149601Z" id="path_1" />
    <clipPath id="mask_1">
      <use xlink:href="#path_1" />
    </clipPath>
  </defs>
  <g id="facebook">
    <path d="M0.00292969 0.00149601L23.4656 0.00149601L23.4656 23.9633L0.00292969 23.9633L0.00292969 0.00149601Z" id="Background" fill="#FFFFFF" fill-opacity="0" fill-rule="evenodd" stroke="none" />
    <g clip-path="url(#mask_1)">
      <path d="M23.4656 12.0558C23.4656 5.39741 18.2129 0 11.7343 0C5.2527 0.00149822 0 5.39741 0 12.0573C0 18.0732 4.29073 23.0603 9.8983 23.9648L9.8983 15.5408L6.92148 15.5408L6.92148 12.0573L9.90124 12.0573L9.90124 9.39904C9.90124 6.37835 11.6536 4.71 14.3327 4.71C15.6173 4.71 16.9591 4.94513 16.9591 4.94513L16.9591 7.91041L15.4795 7.91041C14.0233 7.91041 13.5687 8.84043 13.5687 9.79441L13.5687 12.0558L16.8213 12.0558L16.3021 15.5393L13.5673 15.5393L13.5673 23.9633C19.1748 23.0588 23.4656 18.0717 23.4656 12.0558L23.4656 12.0558Z" id="Shape" fill="#D1D137" stroke="none" />
    </g>
  </g>
</svg>