<?xml version="1.0" encoding="utf-8"?>
<svg width="23.46289px" height="23.961792px" viewBox="0 0 23.46289 23.961792" version="1.1" xmlns:xlink="http://www.w3.org/1999/xlink" xmlns="http://www.w3.org/2000/svg">
  <defs>
    <path d="M0 0L23.4626 0L23.4626 23.9619L0 23.9619L0 0Z" id="path_1" />
    <clipPath id="mask_1">
      <use xlink:href="#path_1" />
    </clipPath>
  </defs>
  <g id="github">
    <path d="M0 0L23.4626 0L23.4626 23.9619L0 23.9619L0 0Z" id="Background" fill="#FFFFFF" fill-opacity="0" fill-rule="evenodd" stroke="none" />
    <g clip-path="url(#mask_1)">
      <path d="M11.7313 0C5.24977 0 0 5.36146 0 11.9809C0 17.2825 3.35809 21.7604 8.02129 23.3478C8.60786 23.4527 8.82782 23.0932 8.82782 22.7787C8.82782 22.4942 8.81316 21.5507 8.81316 20.5473C5.86566 21.1014 5.10313 19.8135 4.8685 19.1395C4.73652 18.7951 4.16462 17.7318 3.66604 17.4472C3.25544 17.2226 2.66888 16.6685 3.65137 16.6535C4.57522 16.6385 5.2351 17.5221 5.45506 17.8815C6.51088 19.6936 8.19726 19.1845 8.87181 18.87C8.97446 18.0912 9.28241 17.567 9.61968 17.2675C7.00947 16.968 4.28193 15.9346 4.28193 11.3519C4.28193 10.049 4.73652 8.97072 5.48439 8.13205C5.36708 7.83253 4.95648 6.60449 5.60171 4.95711C5.60171 4.95711 6.5842 4.64261 8.82782 6.18515C9.76633 5.91558 10.7635 5.7808 11.7607 5.7808C12.7578 5.7808 13.755 5.91558 14.6935 6.18515C16.9371 4.62763 17.9196 4.95711 17.9196 4.95711C18.5648 6.60449 18.1542 7.83253 18.0369 8.13205C18.7848 8.97072 19.2394 10.034 19.2394 11.3519C19.2394 15.9496 16.4972 16.968 13.887 17.2675C14.3122 17.6419 14.6788 18.3608 14.6788 19.484C14.6788 21.0864 14.6642 22.3744 14.6642 22.7787C14.6642 23.0932 14.8841 23.4676 15.4707 23.3478C20.2463 21.7018 23.4618 17.1284 23.4626 11.9809C23.4626 5.36146 18.2129 0 11.7313 0L11.7313 0Z" id="Shape" fill="#D1D137" stroke="none" />
    </g>
  </g>
</svg>