<?xml version="1.0" encoding="utf-8"?>
<svg width="23.462402px" height="23.961792px" viewBox="0 0 23.462402 23.961792" version="1.1" xmlns:xlink="http://www.w3.org/1999/xlink" xmlns="http://www.w3.org/2000/svg">
  <g id="instagram">
    <path d="M11.7313 1.11581e-08C8.54774 1.11581e-08 8.1474 0.0149762 6.89655 0.0718856C5.6457 0.13179 4.79371 0.332471 4.04731 0.628999C3.26438 0.929748 2.55522 1.40151 1.9694 2.0113C1.37268 2.60989 0.910801 3.33405 0.615895 4.13342C0.325544 4.89421 0.127578 5.76582 0.0703879 7.03879C0.0146642 8.31925 0 8.72661 0 11.9824C0 15.2352 0.0146642 15.6426 0.0703879 16.9201C0.129045 18.196 0.325544 19.0661 0.615894 19.8284C0.91651 20.6162 1.31684 21.2841 1.9694 21.9506C2.62048 22.617 3.27451 23.0273 4.04584 23.3329C4.79371 23.6294 5.64423 23.8316 6.89362 23.89C8.14594 23.9469 8.5448 23.9619 11.7313 23.9619C14.9178 23.9619 15.3152 23.9469 16.5676 23.89C17.8155 23.8301 18.6704 23.6294 19.4168 23.3329C20.1992 23.032 20.9079 22.5602 21.4933 21.9506C22.1458 21.2841 22.5461 20.6162 22.8468 19.8284C23.1356 19.0661 23.3336 18.196 23.3923 16.9201C23.448 15.6426 23.4626 15.2352 23.4626 11.9809C23.4626 8.72661 23.448 8.31926 23.3923 7.04029C23.3336 5.76582 23.1356 4.89421 22.8468 4.13342C22.5519 3.33403 22.09 2.60986 21.4932 2.0113C20.9076 1.40128 20.1984 0.929488 19.4153 0.628998C18.6675 0.332471 17.814 0.130293 16.5661 0.0718855C15.3138 0.0149762 14.9164 1.11581e-08 11.7284 1.11581e-08L11.7328 1.11581e-08L11.7313 1.11581e-08ZM10.6801 2.15949L11.733 2.15949C14.8652 2.15949 15.2362 2.16998 16.4724 2.22838C17.6162 2.2808 18.238 2.47699 18.6515 2.64023C19.1985 2.85738 19.59 3.11797 20.0006 3.5373C20.4112 3.95663 20.6649 4.355 20.8775 4.91511C21.0388 5.33594 21.2295 5.97093 21.2808 7.13907C21.338 8.40156 21.3497 8.78045 21.3497 11.9779C21.3497 15.1753 21.338 15.5557 21.2808 16.8182C21.2295 17.9863 21.0374 18.6198 20.8775 19.0421C20.6895 19.5623 20.3893 20.0327 19.9991 20.4184C19.5886 20.8378 19.1985 21.0968 18.65 21.314C18.2395 21.4787 17.6177 21.6734 16.4724 21.7273C15.2362 21.7842 14.8652 21.7977 11.733 21.7977C8.6007 21.7977 8.22823 21.7842 6.99204 21.7273C5.84824 21.6734 5.22795 21.4787 4.81442 21.314C4.30484 21.1222 3.84384 20.8162 3.46532 20.4184C3.07488 20.0321 2.77423 19.5613 2.58547 19.0406C2.42563 18.6198 2.23353 17.9848 2.1822 16.8167C2.12648 15.5542 2.11475 15.1753 2.11475 11.9749C2.11475 8.77596 2.12648 8.39856 2.1822 7.13607C2.23499 5.96793 2.42563 5.33294 2.58693 4.91061C2.79956 4.352 3.05472 3.95214 3.46531 3.53281C3.87591 3.11348 4.26598 2.85439 4.81442 2.63723C5.22795 2.4725 5.84824 2.27781 6.99204 2.22389C8.07426 2.17297 8.49365 2.158 10.6801 2.1565L10.6801 2.15949L10.6801 2.15949ZM17.9942 4.14844C17.2167 4.14844 16.5864 4.79212 16.5864 5.58614C16.5864 6.38017 17.2167 7.02385 17.9942 7.02386C18.7717 7.02386 19.4019 6.38018 19.4019 5.58615C19.4019 4.79213 18.7717 4.14844 17.9942 4.14844L17.9942 4.14844ZM11.7333 5.82871C9.55844 5.79405 7.53412 6.95915 6.43678 8.87713C5.33944 10.7951 5.33943 13.1682 6.43676 15.0862C7.53409 17.0042 9.5584 18.1693 11.7332 18.1346C15.024 18.0822 17.6647 15.3428 17.6648 11.9817C17.6648 8.62052 15.024 5.88116 11.7333 5.82871L11.7333 5.82871ZM11.7327 7.98683C13.1303 7.98627 14.422 8.74742 15.1209 9.98344C15.8199 11.2194 15.8199 12.7424 15.1209 13.9785C14.422 15.2145 13.1303 15.9756 11.7327 15.9751C10.3355 15.9751 9.04438 15.2138 8.34575 13.9781C7.64712 12.7423 7.64712 11.2197 8.34573 9.98391C9.04435 8.74812 10.3354 7.98683 11.7327 7.98683L11.7327 7.98683Z" id="Shape" fill="#D1D137" fill-rule="evenodd" stroke="none" />
  </g>
</svg>