<?xml version="1.0" encoding="utf-8"?>
<svg width="23px" height="23px" viewBox="0 0 23 23" version="1.1" xmlns:xlink="http://www.w3.org/1999/xlink" xmlns="http://www.w3.org/2000/svg">
  <defs>
    <path d="M0 0L23 0L23 23L0 23L0 0Z" id="path_1" />
    <clipPath id="mask_1">
      <use xlink:href="#path_1" />
    </clipPath>
  </defs>
  <g id="list">
    <path d="M0 0L23 0L23 23L0 23L0 0Z" id="Background" fill="#FFFFFF" fill-opacity="0" fill-rule="evenodd" stroke="none" />
    <g clip-path="url(#mask_1)">
      <path d="M3.59375 17.25C3.59375 16.853 3.91555 16.5313 4.3125 16.5313L18.6875 16.5313C18.9443 16.5313 19.1816 16.6682 19.31 16.8906C19.4383 17.113 19.4383 17.387 19.31 17.6094C19.1816 17.8318 18.9443 17.9688 18.6875 17.9688L4.3125 17.9688C3.91555 17.9688 3.59375 17.647 3.59375 17.25L3.59375 17.25ZM3.59375 11.5C3.59375 11.103 3.91555 10.7813 4.3125 10.7813L18.6875 10.7813C18.9443 10.7813 19.1816 10.9182 19.31 11.1406C19.4383 11.363 19.4383 11.637 19.31 11.8594C19.1816 12.0818 18.9443 12.2188 18.6875 12.2188L4.3125 12.2188C3.91555 12.2188 3.59375 11.897 3.59375 11.5L3.59375 11.5ZM3.59375 5.75C3.59375 5.35305 3.91555 5.03125 4.3125 5.03125L18.6875 5.03125C18.9443 5.03125 19.1816 5.16824 19.31 5.39063C19.4383 5.61301 19.4383 5.88699 19.31 6.10938C19.1816 6.33176 18.9443 6.46875 18.6875 6.46875L4.3125 6.46875C3.91555 6.46875 3.59375 6.14695 3.59375 5.75L3.59375 5.75Z" id="Shape" fill="#FFFFFF" fill-rule="evenodd" stroke="none" />
    </g>
  </g>
</svg>