<?xml version="1.0" encoding="utf-8"?>
<svg width="21px" height="21.000061px" viewBox="0 0 21 21.000061" version="1.1" xmlns:xlink="http://www.w3.org/1999/xlink" xmlns="http://www.w3.org/2000/svg">
  <defs>
    <path d="M0 0L21 0L21 21L0 21L0 0Z" id="path_1" />
    <clipPath id="mask_1">
      <use xlink:href="#path_1" />
    </clipPath>
  </defs>
  <g id="moon">
    <path d="M0 0L21 0L21 21L0 21L0 0Z" id="Background" fill="#FFFFFF" fill-opacity="0" fill-rule="evenodd" stroke="none" />
    <g clip-path="url(#mask_1)">
      <path d="M7.875 0.364898C8.13714 0.683424 8.17873 1.12953 7.98 1.49102C7.22119 2.88421 6.82491 4.44585 6.82763 6.03227C6.82763 11.3098 11.13 15.5833 16.4325 15.5833C17.1242 15.5833 17.7975 15.5111 18.4446 15.3733C18.8501 15.2855 19.2688 15.4489 19.5077 15.7881C19.7613 16.1428 19.7446 16.6238 19.467 16.9601C17.3822 19.5211 14.2537 21.0053 10.9515 21C4.90088 21 0 16.1254 0 10.1194C0 5.59915 2.77463 1.72202 6.72525 0.0787731C7.12949 -0.0920711 7.59798 0.024517 7.875 0.364898L7.875 0.364898ZM6.37616 1.72072C3.28116 3.38089 1.34856 6.60727 1.34535 10.1194C1.34535 15.3957 5.64904 19.6692 10.9515 19.6692C13.5163 19.6736 15.9763 18.6518 17.7831 16.8315C17.3408 16.8867 16.8906 16.9142 16.4325 16.9142C10.3819 16.9142 5.48235 12.0396 5.48235 6.0336C5.48235 4.50191 5.79997 3.04372 6.37616 1.72072L6.37616 1.72072Z" id="Shape" fill="#FCFC11" fill-rule="evenodd" stroke="none" />
    </g>
  </g>
</svg>