<?xml version="1.0" encoding="utf-8"?>
<svg width="22px" height="22px" viewBox="0 0 22 22" version="1.1" xmlns:xlink="http://www.w3.org/1999/xlink" xmlns="http://www.w3.org/2000/svg">
  <defs>
    <path d="M0 0L22 0L22 22L0 22L0 0Z" id="path_1" />
    <clipPath id="mask_1">
      <use xlink:href="#path_1" />
    </clipPath>
  </defs>
  <g id="pencil-square">
    <path d="M0 0L22 0L22 22L0 22L0 0Z" id="Background" fill="#FFFFFF" fill-opacity="0" fill-rule="evenodd" stroke="none" />
    <g clip-path="url(#mask_1)">
      <path d="M21.3151 2.66755C21.5826 2.93586 21.5826 3.36999 21.3151 3.6383L19.881 5.0738L17.131 2.3238L18.5651 0.888302C18.8336 0.619915 19.2688 0.619915 19.5373 0.888302L21.3151 2.66618L21.3151 2.66755ZM18.9089 6.04459L16.1589 3.29459L6.79099 12.6638C6.71531 12.7395 6.65834 12.8318 6.62461 12.9333L5.51774 16.2526C5.4768 16.376 5.50899 16.512 5.60093 16.6039C5.69288 16.6958 5.82883 16.728 5.95224 16.6871L9.27149 15.5802C9.37291 15.5469 9.46518 15.4904 9.54099 15.4152L18.9089 6.04597L18.9089 6.04459Z" id="Shape" fill="#D1D137" fill-rule="evenodd" stroke="none" />
      <path d="M1.375 18.5625C1.375 19.7016 2.29841 20.625 3.4375 20.625L18.5625 20.625C19.7016 20.625 20.625 19.7016 20.625 18.5625L20.625 10.3125C20.625 9.93281 20.3172 9.625 19.9375 9.625C19.5578 9.625 19.25 9.9328 19.25 10.3125L19.25 18.5625C19.25 18.9422 18.9422 19.25 18.5625 19.25L3.4375 19.25C3.0578 19.25 2.75 18.9422 2.75 18.5625L2.75 3.4375C2.75 3.0578 3.0578 2.75 3.4375 2.75L12.375 2.75C12.7547 2.75 13.0625 2.4422 13.0625 2.0625C13.0625 1.68281 12.7547 1.375 12.375 1.375L3.4375 1.375C2.29841 1.375 1.375 2.29841 1.375 3.4375L1.375 18.5625L1.375 18.5625Z" id="Shape" fill="#D1D137" fill-rule="evenodd" stroke="none" />
    </g>
  </g>
</svg>