<?xml version="1.0" encoding="utf-8"?>
<svg width="22px" height="22px" viewBox="0 0 22 22" version="1.1" xmlns:xlink="http://www.w3.org/1999/xlink" xmlns="http://www.w3.org/2000/svg">
  <defs>
    <path d="M0 0L22 0L22 22L0 22L0 0Z" id="path_1" />
    <clipPath id="mask_1">
      <use xlink:href="#path_1" />
    </clipPath>
  </defs>
  <g id="arrow-clockwise">
    <path d="M0 0L22 0L22 22L0 22L0 0Z" id="Background" fill="#FFFFFF" fill-opacity="0" fill-rule="evenodd" stroke="none" />
    <g clip-path="url(#mask_1)">
      <path d="M10.9999 4.125C7.94798 4.12617 5.26213 6.13922 4.40457 9.06822C3.54701 11.9972 4.72306 15.141 7.29246 16.788C9.86187 18.435 13.2095 18.1909 15.5129 16.1887C17.8163 14.1865 18.524 10.9055 17.2507 8.13178C17.1105 7.79063 17.2645 7.39962 17.5997 7.24568C17.9348 7.09174 18.3318 7.22972 18.4992 7.55837C20.0271 10.887 19.1776 14.8243 16.4132 17.2269C13.6489 19.6294 9.63151 19.9219 6.54835 17.945C3.46519 15.9682 2.05442 12.1953 3.0841 8.68056C4.11379 5.16579 7.33741 2.75064 10.9999 2.75L10.9999 4.125L10.9999 4.125Z" id="Shape" fill="#D1D137" fill-rule="evenodd" stroke="none" />
      <path d="M11 6.14079L11 0.734288C11 0.600956 11.0772 0.479669 11.198 0.423116C11.3187 0.366562 11.4613 0.384945 11.5637 0.470282L14.8087 3.17354C14.9737 3.31104 14.9737 3.56404 14.8087 3.70154L11.5637 6.40479C11.4613 6.49013 11.3187 6.50852 11.198 6.45197C11.0772 6.39542 11 6.27413 11 6.14079L11 6.14079Z" id="Shape" fill="#D1D137" stroke="none" />
    </g>
  </g>
</svg>