<?xml version="1.0" encoding="utf-8"?>
<svg width="19.200195px" height="19.200012px" viewBox="0 0 19.200195 19.200012" version="1.1" xmlns:xlink="http://www.w3.org/1999/xlink" xmlns="http://www.w3.org/2000/svg">
  <g id="sun-fill">
    <path d="M9.59999 14.4C12.2509 14.4 14.4 12.251 14.4 9.60001C14.4 6.94905 12.251 4.80001 9.60001 4.8C6.94905 4.79999 4.80001 6.94901 4.8 9.59998C4.79999 12.2509 6.949 14.4 9.59996 14.4L9.59999 14.4ZM9.6 0C9.93137 0 10.2 0.268629 10.2 0.6L10.2 3C10.2 3.21436 10.0856 3.41244 9.9 3.51962C9.71436 3.6268 9.48564 3.6268 9.3 3.51962C9.11436 3.41244 9 3.21436 9 3L9 0.6C9 0.268629 9.26863 0 9.6 0L9.6 0ZM9.6 15.6C9.93137 15.6 10.2 15.8686 10.2 16.2L10.2 18.6C10.2 18.8144 10.0856 19.0124 9.9 19.1196C9.71436 19.2268 9.48564 19.2268 9.3 19.1196C9.11436 19.0124 9 18.8144 9 18.6L9 16.2C9 15.8686 9.26863 15.6 9.6 15.6L9.6 15.6ZM19.2 9.6C19.2 9.93137 18.9314 10.2 18.6 10.2L16.2 10.2C15.9856 10.2 15.7876 10.0856 15.6804 9.9C15.5732 9.71436 15.5732 9.48564 15.6804 9.3C15.7876 9.11436 15.9856 9 16.2 9L18.6 9C18.9314 9 19.2 9.26863 19.2 9.6L19.2 9.6ZM3.6 9.6C3.6 9.93137 3.33137 10.2 3 10.2L0.6 10.2C0.385641 10.2 0.187564 10.0856 0.0803848 9.9C-0.0267949 9.71436 -0.0267949 9.48564 0.0803848 9.3C0.187564 9.11436 0.385641 9 0.6 9L3 9C3.33137 9 3.6 9.26863 3.6 9.6L3.6 9.6ZM16.3884 2.8116C16.6226 3.0459 16.6226 3.4257 16.3884 3.66L14.6916 5.358C14.5398 5.50955 14.3188 5.56863 14.1116 5.51297C13.9045 5.45731 13.7428 5.29538 13.6874 5.08817C13.6321 4.88096 13.6914 4.65996 13.8432 4.5084L15.54 2.8116C15.7743 2.57737 16.1541 2.57737 16.3884 2.8116L16.3884 2.8116ZM5.35679 13.8432C5.59102 14.0775 5.59102 14.4573 5.35679 14.6916L3.65999 16.3884C3.42456 16.6158 3.05034 16.6125 2.8189 16.3811C2.58746 16.1496 2.58421 15.7754 2.81159 15.54L4.50839 13.8432C4.74269 13.609 5.12249 13.609 5.35679 13.8432L5.35679 13.8432ZM16.3884 16.3884C16.1541 16.6226 15.7743 16.6226 15.54 16.3884L13.8432 14.6916C13.6158 14.4562 13.6191 14.082 13.8505 13.8505C14.0819 13.6191 14.4561 13.6158 14.6916 13.8432L16.3884 15.54C16.6226 15.7743 16.6226 16.1541 16.3884 16.3884L16.3884 16.3884ZM5.35683 5.358C5.12253 5.59223 4.74273 5.59223 4.50843 5.358L2.81163 3.66C2.65566 3.50936 2.5931 3.28628 2.64801 3.0765C2.70292 2.86672 2.86675 2.70289 3.07652 2.64798C3.2863 2.59308 3.50938 2.65563 3.66003 2.8116L5.35683 4.5084C5.46968 4.62097 5.5331 4.77381 5.5331 4.9332C5.5331 5.0926 5.46968 5.24544 5.35683 5.358L5.35683 5.358Z" id="Shape" fill="#FCFC11" fill-rule="evenodd" stroke="none" />
  </g>
</svg>