<?xml version="1.0" encoding="utf-8"?>
<svg width="29.333313px" height="22px" viewBox="0 0 29.333313 22" version="1.1" xmlns:xlink="http://www.w3.org/1999/xlink" xmlns="http://www.w3.org/2000/svg">
  <g id="card-list" transform="matrix(1 0 0 -1 0 22)">
    <path d="M26.5833 1.83322C27.0896 1.83322 27.5 2.24363 27.5 2.74989L27.5 19.2499C27.5 19.7561 27.0896 20.1666 26.5833 20.1666L2.74997 20.1666C2.24371 20.1666 1.83331 19.7561 1.83331 19.2499L1.83331 2.74989C1.83331 2.24363 2.24371 1.83322 2.74997 1.83322L26.5833 1.83322L26.5833 1.83322ZM2.75 0C1.23122 0 0 1.23122 0 2.75L0 19.25C0 20.7688 1.23122 22 2.75 22L26.5833 22C28.1021 22 29.3333 20.7688 29.3333 19.25L29.3333 2.75C29.3333 1.23122 28.1021 0 26.5833 0L2.75 0L2.75 0Z" id="Shape" fill="#FCFC11" fill-rule="evenodd" stroke="none" />
    <path d="M9.16669 10.9999C9.16669 10.4936 9.5771 10.0832 10.0834 10.0832L22.9167 10.0832C23.2442 10.0832 23.5468 10.2579 23.7106 10.5416C23.8743 10.8252 23.8743 11.1746 23.7106 11.4582C23.5468 11.7418 23.2442 11.9166 22.9167 11.9166L10.0834 11.9166C9.5771 11.9166 9.16669 11.5061 9.16669 10.9999L9.16669 10.9999ZM9.16669 6.41667C9.16669 5.91041 9.5771 5.5 10.0834 5.5L22.9167 5.5C23.2442 5.5 23.5468 5.67472 23.7106 5.95833C23.8743 6.24195 23.8743 6.59138 23.7106 6.875C23.5468 7.15862 23.2442 7.33333 22.9167 7.33333L10.0834 7.33333C9.5771 7.33333 9.16669 6.92293 9.16669 6.41667L9.16669 6.41667ZM9.16669 15.5834C9.16669 15.0772 9.5771 14.6668 10.0834 14.6668L22.9167 14.6668C23.2442 14.6668 23.5468 14.8415 23.7106 15.1251C23.8743 15.4087 23.8743 15.7582 23.7106 16.0418C23.5468 16.3254 23.2442 16.5001 22.9167 16.5001L10.0834 16.5001C9.5771 16.5001 9.16669 16.0897 9.16669 15.5834L9.16669 15.5834ZM7.33333 6.41667C7.33333 6.74416 7.15862 7.04678 6.875 7.21052C6.59138 7.37427 6.24195 7.37427 5.95833 7.21052C5.67472 7.04678 5.5 6.74416 5.5 6.41667C5.5 6.08917 5.67472 5.78656 5.95833 5.62281C6.24195 5.45906 6.59138 5.45906 6.875 5.62281C7.15862 5.78656 7.33333 6.08917 7.33333 6.41667L7.33333 6.41667ZM7.33333 10.9999C7.33333 11.3274 7.15862 11.63 6.875 11.7937C6.59138 11.9575 6.24195 11.9575 5.95833 11.7937C5.67472 11.63 5.5 11.3274 5.5 10.9999C5.5 10.6724 5.67472 10.3698 5.95833 10.206C6.24195 10.0423 6.59138 10.0423 6.875 10.206C7.15862 10.3698 7.33333 10.6724 7.33333 10.9999L7.33333 10.9999ZM7.33333 15.5834C7.33333 15.9109 7.15862 16.2136 6.875 16.3773C6.59138 16.541 6.24195 16.541 5.95833 16.3773C5.67472 16.2136 5.5 15.9109 5.5 15.5834C5.5 15.256 5.67472 14.9533 5.95833 14.7896C6.24195 14.6258 6.59138 14.6258 6.875 14.7896C7.15862 14.9533 7.33333 15.256 7.33333 15.5834L7.33333 15.5834Z" id="Shape" fill="#FCFC11" fill-rule="evenodd" stroke="none" />
  </g>
</svg>