<?xml version="1.0" encoding="utf-8"?>
<svg width="24px" height="24px" viewBox="0 0 24 24" version="1.1" xmlns:xlink="http://www.w3.org/1999/xlink" xmlns="http://www.w3.org/2000/svg">
  <defs>
    <path d="M0 0L24 0L24 24L0 24L0 0Z" id="path_1" />
    <clipPath id="mask_1">
      <use xlink:href="#path_1" />
    </clipPath>
  </defs>
  <g id="trash-2">
    <path d="M0 0L24 0L24 24L0 24L0 0Z" id="Background" fill="#FFFFFF" fill-opacity="0" fill-rule="evenodd" stroke="none" />
    <g clip-path="url(#mask_1)">
      <path d="M8.25 8.25C8.66421 8.25 9 8.58579 9 9L9 18C9 18.2679 8.85705 18.5155 8.625 18.6495C8.39295 18.7835 8.10705 18.7835 7.875 18.6495C7.64295 18.5155 7.5 18.2679 7.5 18L7.5 9C7.5 8.58579 7.83579 8.25 8.25 8.25L8.25 8.25ZM12 8.25C12.4142 8.25 12.75 8.58579 12.75 9L12.75 18C12.75 18.2679 12.607 18.5155 12.375 18.6495C12.143 18.7835 11.857 18.7835 11.625 18.6495C11.3929 18.5155 11.25 18.2679 11.25 18L11.25 9C11.25 8.58579 11.5858 8.25 12 8.25L12 8.25ZM16.5 9C16.5 8.58579 16.1642 8.25 15.75 8.25C15.3358 8.25 15 8.58578 15 9L15 18C15 18.4142 15.3358 18.75 15.75 18.75C16.1642 18.75 16.5 18.4142 16.5 18L16.5 9L16.5 9Z" id="Shape" fill="#D1D137" fill-rule="evenodd" stroke="none" />
      <path d="M21.75 4.5C21.75 5.32843 21.0784 6 20.25 6L19.5 6L19.5 19.5C19.5 21.1569 18.1569 22.5 16.5 22.5L7.5 22.5C5.84315 22.5 4.5 21.1569 4.5 19.5L4.5 6L3.75 6C2.92157 6 2.25 5.32843 2.25 4.5L2.25 3C2.25 2.17157 2.92157 1.5 3.75 1.5L9 1.5C9 0.671573 9.67157 0 10.5 0L13.5 0C14.3284 0 15 0.671573 15 1.5L20.25 1.5C21.0784 1.5 21.75 2.17157 21.75 3L21.75 4.5L21.75 4.5ZM6.177 6L6 6.0885L6 19.5C6 20.3284 6.67157 21 7.5 21L16.5 21C17.3284 21 18 20.3284 18 19.5L18 6.0885L17.823 6L6.177 6L6.177 6ZM3.75 4.5L3.75 3L20.25 3L20.25 4.5L3.75 4.5L3.75 4.5Z" id="Shape" fill="#D1D137" fill-rule="evenodd" stroke="none" />
    </g>
  </g>
</svg>