<?xml version="1.0" encoding="utf-8"?>
<svg width="23.46289px" height="23.961792px" viewBox="0 0 23.46289 23.961792" version="1.1" xmlns:xlink="http://www.w3.org/1999/xlink" xmlns="http://www.w3.org/2000/svg">
  <defs>
    <path d="M0 0L23.4626 0L23.4626 23.9619L0 23.9619L0 0Z" id="path_1" />
    <clipPath id="mask_1">
      <use xlink:href="#path_1" />
    </clipPath>
  </defs>
  <g id="twitter">
    <path d="M0 0L23.4626 0L23.4626 23.9619L0 23.9619L0 0Z" id="Background" fill="#FFFFFF" fill-opacity="0" fill-rule="evenodd" stroke="none" />
    <g clip-path="url(#mask_1)">
      <path d="M7.3702 22.4642C16.2244 22.4642 21.068 14.9717 21.068 8.48548C21.068 8.27582 21.068 8.06315 21.0592 7.85349C22.0022 7.15633 22.816 6.2932 23.4626 5.30455C22.5818 5.70119 21.6483 5.9626 20.6926 6.08031C21.6993 5.46574 22.4533 4.49878 22.8145 3.35914C21.8686 3.93142 20.8334 4.33315 19.7541 4.54675C18.2623 2.92416 15.8897 2.52619 13.9681 3.5762C12.0465 4.6262 11.0541 6.86275 11.548 9.03061C7.67715 8.83239 4.07047 6.96591 1.62479 3.89529C0.350674 6.14267 1.00388 9.01424 3.1176 10.4578C2.35439 10.4314 1.60795 10.2221 0.938504 9.84681L0.938505 9.91421C0.941127 12.2527 2.55405 14.2668 4.79792 14.7335C4.38484 14.8497 3.95813 14.9077 3.52966 14.9058C3.22756 14.9067 2.92606 14.8781 2.62929 14.8204C3.26 16.8225 5.06777 18.1932 7.12678 18.2305C5.42069 19.599 3.31322 20.3412 1.1438 20.3376C0.76154 20.3393 0.379542 20.3168 0 20.2702C2.20184 21.7038 4.75895 22.465 7.3702 22.4642L7.3702 22.4642Z" id="Shape" fill="#D1D137" stroke="none" />
    </g>
  </g>
</svg>