<?xml version="1.0" encoding="utf-8"?>
<svg width="24.001953px" height="22px" viewBox="0 0 24.001953 22" version="1.1" xmlns:xlink="http://www.w3.org/1999/xlink" xmlns="http://www.w3.org/2000/svg">
  <defs>
    <path d="M0 0L16 0L16 16L0 16L0 0Z" id="path_1" />
    <clipPath id="mask_1">
      <use xlink:href="#path_1" />
    </clipPath>
  </defs>
  <g id="Group-5">
    <g id="image">
      <path d="M0 0L16 0L16 16L0 16L0 0Z" id="Background" fill="#FFFFFF" fill-opacity="0" fill-rule="evenodd" stroke="none" />
      <g clip-path="url(#mask_1)">
        <path d="M6.002 5.5C6.002 6.0359 5.7161 6.53109 5.252 6.79904C4.7879 7.06699 4.2161 7.06699 3.752 6.79904C3.2879 6.53109 3.002 6.0359 3.002 5.5C3.002 4.9641 3.2879 4.46891 3.752 4.20096C4.2161 3.93301 4.7879 3.93301 5.252 4.20096C5.7161 4.46891 6.002 4.9641 6.002 5.5L6.002 5.5Z" id="Shape" fill="#BDBDBD" stroke="none" />
        <path d="M2.002 1C0.89743 1 0.00200009 1.89543 0.00200009 3L0.00200009 13C0.00200009 14.1046 0.89743 15 2.002 15L14.002 15C15.1066 15 16.002 14.1046 16.002 13L16.002 3C16.002 1.89543 15.1066 1 14.002 1L2.002 1L2.002 1ZM14.002 2C14.5543 2 15.002 2.44772 15.002 3L15.002 9.5L11.225 7.553C11.0327 7.45666 10.8003 7.49412 10.648 7.646L6.938 11.356L4.278 9.584C4.07999 9.45217 3.81651 9.4781 3.648 9.646L1.002 12L1.002 3C1.002 2.44772 1.44972 2 2.002 2L14.002 2L14.002 2Z" id="Shape" fill="#BDBDBD" fill-rule="evenodd" stroke="none" />
      </g>
    </g>
    <g id="plus" transform="translate(8.001953 6)">
      <path d="M0 0L16 0L16 16L0 16L0 0Z" id="Background" fill="#FFFFFF" fill-opacity="0" fill-rule="evenodd" stroke="none" />
      <g clip-path="url(#mask_1)">
        <path d="M8 4C8.27614 4 8.5 4.22386 8.5 4.5L8.5 7.5L11.5 7.5C11.6786 7.5 11.8437 7.5953 11.933 7.75C12.0223 7.9047 12.0223 8.0953 11.933 8.25C11.8437 8.4047 11.6786 8.5 11.5 8.5L8.5 8.5L8.5 11.5C8.5 11.6786 8.4047 11.8437 8.25 11.933C8.0953 12.0223 7.9047 12.0223 7.75 11.933C7.5953 11.8437 7.5 11.6786 7.5 11.5L7.5 8.5L4.5 8.5C4.32137 8.5 4.1563 8.4047 4.06699 8.25C3.97767 8.0953 3.97767 7.9047 4.06699 7.75C4.1563 7.5953 4.32137 7.5 4.5 7.5L7.5 7.5L7.5 4.5C7.5 4.22386 7.72386 4 8 4L8 4Z" id="Shape" fill="#BDBDBD" stroke="none" />
      </g>
    </g>
  </g>
</svg>