<?xml version="1.0" encoding="utf-8"?>
<svg width="20px" height="20px" viewBox="0 0 20 20" version="1.1" xmlns:xlink="http://www.w3.org/1999/xlink" xmlns="http://www.w3.org/2000/svg">
  <defs>
    <path d="M0 0L20 0L20 20L0 20L0 0Z" id="path_1" />
    <clipPath id="mask_1">
      <use xlink:href="#path_1" />
    </clipPath>
  </defs>
  <g id="x">
    <path d="M0 0L20 0L20 20L0 20L0 0Z" id="Background" fill="#FFFFFF" fill-opacity="0" fill-rule="evenodd" stroke="none" />
    <path d="M5.80749 5.8074C5.92475 5.68984 6.08396 5.62378 6.24999 5.62378C6.41603 5.62378 6.57524 5.68984 6.69249 5.8074L9.99999 9.11615L13.3075 5.8074C13.5518 5.56304 13.948 5.56301 14.1924 5.80732C14.4368 6.05163 14.4369 6.4478 14.1926 6.69224L10.8837 9.9999L14.1925 13.3074C14.4368 13.5518 14.4369 13.9479 14.1926 14.1923C13.9483 14.4367 13.5521 14.4368 13.3076 14.1926L9.99999 10.8836L6.69249 14.1924C6.44814 14.4368 6.05197 14.4368 5.80757 14.1925C5.56317 13.9482 5.56307 13.552 5.80734 13.3076L9.11624 9.9999L5.80749 6.6924C5.68994 6.57514 5.62387 6.41593 5.62387 6.2499C5.62387 6.08386 5.68994 5.92465 5.80749 5.8074L5.80749 5.8074Z" id="Shape" fill="#FFFFFF" stroke="none" />
  </g>
</svg>